PathFileType  4	(X/Y/Z) C:\Inversekin\DARPA\DARPA11\Files_W_HJCs\
DataRate	CameraRate	NumFrames	NumMarkers	Units	OrigDataRate	OrigDataStartFrame	OrigNumFrames
  100.0		  100.0		    9		     41		 mm	  100.0	      120	    238
Frame#	Time	R.Shoulder			L.Shoulder			R.Clavicle			L.Clavicle			R.Biceps			R.Elbow			R.Forearm			R.Wrist			L.Biceps			L.Elbow			L.Forearm			L.Wrist			R.ASIS			L.ASIS			R.PSIS			S2			L.PSIS			R.TH1			R.TH2			R.TH3			R.Knee			R.SH1			R.SH2			R.SH3			R.SH4			R.Ankle			R.Heel			R.MT5			R.Toe			L.TH1			L.TH2			L.TH3			L.TH4			L.Knee			L.SH1			L.SH2			L.SH3			L.Ankle			L.Heel			L.MT5			L.Toe			
		X1	Y1	Z1	X2	Y2	Z2	X3	Y3	Z3	X4	Y4	Z4	X5	Y5	Z5	X6	Y6	Z6	X7	Y7	Z7	X8	Y8	Z8	X9	Y9	Z9	X10	Y10	Z10	X11	Y11	Z11	X12	Y12	Z12	X13	Y13	Z13	X14	Y14	Z14	X15	Y15	Z15	X16	Y16	Z16	X17	Y17	Z17	X18	Y18	Z18	X19	Y19	Z19	X20	Y20	Z20	X21	Y21	Z21	X22	Y22	Z22	X23	Y23	Z23	X24	Y24	Z24	X25	Y25	Z25	X26	Y26	Z26	X27	Y27	Z27	X28	Y28	Z28	X29	Y29	Z29	X30	Y30	Z30	X31	Y31	Z31	X32	Y32	Z32	X33	Y33	Z33	X34	Y34	Z34	X35	Y35	Z35	X36	Y36	Z36	X37	Y37	Z37	X38	Y38	Z38	X39	Y39	Z39	X40	Y40	Z40	X41	Y41	Z41	

120	1.19000	844.182	1528.640	-104.566	865.813	1540.112	-446.963	915.486	1490.573	-246.939	917.870	1490.179	-297.784	852.892	1265.916	-25.507	795.281	1180.173	1.069	880.345	1058.458	28.001	925.885	943.865	41.100	890.300	1316.007	-535.293	875.538	1193.151	-564.659	969.319	1085.440	-568.907	1033.396	990.781	-557.440	939.595	1027.275	-147.481	951.643	1023.558	-400.202	733.328	1017.318	-236.144	725.256	997.135	-282.207	738.179	1022.890	-326.962	977.446	816.863	-64.613	881.177	762.713	-65.593	942.121	647.012	-82.436	1026.634	552.840	-96.298	997.877	466.501	-89.352	933.314	374.229	-90.598	927.841	510.140	-109.298	859.245	411.098	-115.131	796.860	216.909	-132.065	703.310	195.097	-198.977	833.313	87.221	-77.329	954.781	46.377	-152.525	993.494	800.762	-419.802	988.192	672.585	-386.761	903.680	797.661	-477.822	881.021	670.444	-435.430	893.992	527.017	-391.099	913.401	414.383	-372.598	824.263	433.739	-411.256	801.304	319.711	-400.484	827.899	109.646	-359.378	734.070	36.628	-317.761	930.208	39.431	-386.685	1028.682	58.365	-287.042
121	1.20000	855.624	1528.488	-104.770	878.773	1540.859	-447.011	927.921	1490.659	-246.936	929.892	1490.455	-297.720	862.327	1265.841	-25.885	803.297	1180.267	0.249	887.453	1057.931	27.876	932.455	943.221	41.150	904.599	1317.018	-535.914	891.629	1194.031	-565.600	987.230	1088.286	-568.283	1053.806	995.391	-555.397	950.948	1028.019	-148.570	962.365	1022.798	-401.214	744.235	1017.360	-235.229	735.939	997.113	-281.278	748.866	1022.833	-326.058	991.576	819.442	-65.324	896.318	764.070	-64.632	957.570	649.310	-82.398	1042.591	555.298	-97.643	1017.743	467.057	-90.299	958.206	371.645	-91.077	945.344	506.823	-109.909	882.454	404.942	-115.139	830.657	206.270	-131.620	738.112	178.251	-197.840	875.749	79.132	-76.948	998.718	46.043	-152.990	1001.756	799.418	-419.565	994.159	670.958	-386.468	911.557	797.123	-477.933	887.293	670.184	-435.259	897.286	526.871	-391.341	916.229	414.313	-372.630	826.868	433.960	-411.542	803.151	320.166	-400.703	828.141	109.757	-359.223	734.280	36.868	-317.627	930.331	39.375	-386.681	1029.106	57.686	-286.330
122	1.21000	867.228	1528.028	-105.005	891.869	1541.128	-447.018	939.771	1490.566	-246.836	942.112	1490.378	-297.715	871.134	1265.182	-26.296	811.774	1179.924	-0.705	894.535	1057.480	27.610	938.796	942.381	41.192	918.972	1317.835	-536.339	906.925	1194.912	-566.485	1005.196	1090.749	-567.483	1073.719	999.919	-553.437	961.789	1028.518	-149.618	972.596	1021.890	-402.439	755.565	1017.050	-234.092	746.481	996.758	-280.196	758.990	1022.600	-325.087	1005.715	821.410	-66.220	912.653	765.166	-64.926	972.755	650.963	-82.281	1058.103	557.623	-98.973	1037.423	467.662	-90.974	982.924	368.591	-91.453	963.328	502.685	-110.312	905.544	398.151	-114.917	865.151	195.522	-131.333	774.758	161.147	-197.305	918.519	71.801	-76.295	1043.233	46.780	-152.765	1009.294	797.270	-419.923	1001.150	669.708	-386.629	918.944	796.809	-478.166	893.064	670.282	-435.290	900.288	526.600	-391.528	918.074	413.615	-372.452	830.009	433.669	-411.297	805.774	320.179	-400.500	828.386	109.911	-359.065	734.214	37.188	-317.600	930.533	39.268	-386.638	1028.957	57.061	-286.308
123	1.22000	878.566	1527.584	-105.093	904.803	1541.430	-447.028	951.831	1490.135	-246.930	954.517	1490.077	-297.492	880.494	1264.799	-26.612	819.987	1179.946	-1.633	901.920	1056.489	27.386	945.440	941.362	41.340	933.131	1318.302	-536.876	922.495	1195.130	-567.254	1022.979	1093.217	-566.665	1093.109	1003.988	-551.221	973.601	1028.598	-150.623	983.041	1020.661	-403.400	766.357	1016.939	-232.790	757.550	996.214	-278.744	769.657	1021.943	-323.986	1019.372	822.458	-67.333	925.592	766.187	-64.145	987.185	652.164	-82.145	1072.388	558.965	-100.369	1054.799	466.182	-91.821	1007.720	365.169	-91.944	980.302	498.238	-110.478	929.038	389.510	-115.341	899.885	185.030	-131.163	811.340	144.797	-196.313	961.751	65.452	-75.389	1088.014	48.557	-151.646	1016.971	795.281	-420.158	1006.672	667.659	-386.695	927.136	795.755	-478.136	899.449	669.972	-435.106	903.674	526.370	-391.641	920.755	413.775	-372.483	831.725	434.459	-411.721	806.771	320.970	-400.801	828.699	110.053	-358.862	734.337	37.374	-317.514	930.595	39.225	-386.630	1029.216	56.883	-286.364
124	1.23000	890.461	1526.842	-105.187	917.894	1541.172	-447.027	963.706	1489.391	-246.611	966.735	1489.525	-297.376	889.828	1263.926	-27.015	828.536	1179.491	-2.504	909.904	1055.819	27.043	952.419	940.310	41.414	947.461	1318.428	-537.187	938.188	1195.263	-567.926	1040.266	1095.340	-565.787	1112.323	1007.860	-549.041	984.670	1028.554	-151.589	993.130	1019.433	-404.204	777.493	1016.323	-231.503	768.283	995.705	-277.362	780.361	1021.171	-322.732	1032.501	823.562	-68.010	940.155	766.866	-63.272	1000.732	652.710	-82.050	1087.072	559.394	-101.578	1071.717	464.208	-92.842	1031.904	361.791	-91.984	996.787	492.820	-110.536	952.448	380.912	-115.707	935.665	174.774	-131.103	850.162	128.476	-196.286	1004.790	60.155	-74.218	1132.125	50.817	-149.663	1024.796	793.383	-420.623	1013.760	666.598	-386.615	935.006	795.027	-478.108	905.044	669.726	-434.749	906.893	525.856	-391.848	922.561	413.276	-372.585	834.354	434.943	-411.609	808.121	321.715	-400.500	828.913	110.166	-358.590	733.934	37.831	-317.338	930.612	39.130	-386.633	1029.278	56.669	-286.391
125	1.24000	901.998	1525.798	-105.240	931.180	1540.862	-446.827	976.049	1488.721	-246.657	979.257	1488.873	-297.142	899.323	1262.825	-27.297	837.665	1178.732	-3.402	917.504	1054.660	26.754	959.626	938.995	41.444	961.554	1318.539	-537.482	952.851	1195.366	-568.566	1057.460	1097.261	-564.799	1131.406	1011.869	-546.593	995.974	1028.254	-152.287	1004.314	1018.461	-404.926	788.633	1015.849	-230.166	779.431	994.981	-275.730	790.741	1020.429	-321.367	1045.547	823.732	-69.126	952.908	766.626	-62.499	1014.002	653.054	-81.978	1100.567	559.177	-102.597	1093.095	465.333	-94.640	1056.813	358.262	-92.386	1012.856	486.756	-110.782	976.683	371.911	-115.819	971.791	164.775	-131.171	889.800	112.543	-196.430	1048.194	55.698	-72.900	1176.113	54.339	-147.459	1032.759	791.275	-421.251	1019.829	664.664	-386.605	942.851	793.762	-478.367	911.376	669.454	-434.496	910.329	525.550	-392.004	925.058	413.089	-372.759	836.867	434.832	-410.862	809.875	322.016	-400.012	829.204	110.274	-358.263	733.655	38.485	-317.234	930.613	39.105	-386.634	1029.371	56.407	-286.458
126	1.25000	913.560	1524.893	-105.265	944.138	1540.187	-446.741	987.761	1487.696	-246.471	991.382	1487.741	-296.956	909.409	1261.887	-27.496	846.365	1178.133	-4.281	925.576	1053.529	26.463	966.851	937.501	41.522	975.956	1318.266	-537.437	968.448	1195.148	-569.121	1074.560	1098.978	-563.514	1149.993	1015.464	-543.825	1007.250	1027.705	-153.027	1014.686	1016.922	-405.659	800.097	1015.578	-228.908	790.424	994.767	-274.299	801.987	1019.813	-320.002	1058.087	823.664	-70.108	965.674	766.115	-61.860	1026.531	652.632	-82.094	1113.200	558.542	-104.191	1110.719	463.954	-95.971	1081.059	354.934	-93.103	1029.561	479.966	-111.589	1000.166	363.319	-115.927	1008.510	156.002	-130.658	932.510	96.225	-196.674	1091.488	52.603	-71.522	1220.099	59.446	-145.138	1040.806	789.110	-421.628	1026.118	662.634	-386.776	950.672	793.060	-478.327	917.082	669.220	-434.140	913.851	525.200	-392.118	927.236	412.583	-373.032	838.492	435.473	-410.732	810.888	322.845	-399.507	829.282	110.566	-357.867	733.682	38.788	-317.069	930.572	39.047	-386.646	1029.972	56.525	-286.534
127	1.26000	925.265	1523.517	-105.295	957.743	1539.447	-446.447	1000.260	1486.389	-246.230	1003.649	1486.647	-296.665	919.572	1260.692	-27.826	855.765	1177.037	-4.996	933.907	1051.963	26.259	974.296	935.957	41.631	990.071	1317.721	-537.673	983.640	1194.604	-569.565	1091.360	1100.451	-562.327	1167.658	1018.386	-541.204	1018.658	1026.823	-153.580	1025.388	1015.415	-406.283	811.265	1015.619	-227.724	801.512	994.453	-273.026	812.978	1019.315	-318.833	1070.236	822.679	-71.122	977.701	765.332	-61.452	1038.299	651.831	-82.371	1125.449	557.497	-106.045	1127.950	462.517	-97.259	1106.071	351.814	-94.378	1045.756	472.809	-112.311	1023.680	355.005	-116.037	1045.268	147.743	-130.362	973.248	82.835	-196.478	1134.727	50.576	-70.153	1263.329	65.603	-142.899	1049.455	787.071	-422.143	1032.721	660.802	-386.853	958.419	791.622	-478.529	923.765	668.504	-433.915	917.517	524.646	-392.202	929.915	412.065	-373.481	841.132	435.690	-410.136	812.603	323.366	-398.645	829.651	110.916	-357.441	733.778	39.023	-316.916	930.542	39.041	-386.626	1029.698	56.209	-286.592
128	1.27000	936.740	1522.161	-105.134	970.599	1538.401	-446.271	1012.632	1485.224	-245.678	1016.423	1485.157	-296.273	929.328	1258.995	-28.345	865.194	1175.860	-5.777	942.562	1050.480	26.090	982.231	934.233	41.720	1004.230	1316.968	-537.472	998.837	1193.964	-569.723	1107.941	1101.598	-560.904	1185.427	1021.547	-538.267	1030.729	1025.776	-154.027	1037.282	1014.264	-406.159	822.891	1015.258	-226.559	812.924	994.144	-271.875	824.195	1019.192	-317.823	1081.850	821.365	-71.975	989.750	764.195	-61.302	1049.288	650.550	-83.126	1136.223	555.717	-107.724	1144.300	460.917	-98.716	1129.678	348.952	-95.030	1061.604	465.751	-113.328	1047.062	346.681	-116.726	1082.833	140.684	-130.099	1015.784	70.357	-196.101	1178.178	50.067	-68.825	1305.945	73.309	-140.955	1056.916	784.853	-422.317	1039.355	658.756	-387.193	966.382	790.404	-478.525	929.850	667.825	-433.505	921.559	524.112	-392.024	933.249	411.672	-373.695	844.034	436.185	-409.544	814.716	323.877	-398.111	829.973	111.500	-356.952	733.821	39.255	-316.745	930.702	38.621	-386.278	1030.223	55.759	-286.554
